<?xml version="1.0" encoding="UTF-8"?>
<svg xmlns="http://www.w3.org/2000/svg" width="304.8mm" height="508mm" viewBox="0 0 304.8 508" role="img" aria-labelledby="title desc">
<title id="title">Manual trim sheet 336</title><desc id="desc">Print or reference after laser marking for mechanical trimming. Triangle borders are documentation, not enabled laser cutting paths.</desc>
<g id="manual-trim-only" fill="none" stroke="#000" stroke-width="0.18"><g id="body-T0128"><path d="M159.589,452.386 269.247,452.386 259.401,497.745Z"/><g fill="#000" stroke="none"><text x="229.412" y="467.506" font-size="2.4" text-anchor="middle">body-T0128</text><text x="214.418" y="452.386" font-size="1.8" text-anchor="middle">E1</text><text x="264.324" y="475.066" font-size="1.8" text-anchor="middle">E2</text><text x="209.495" y="475.066" font-size="1.8" text-anchor="middle">E3</text></g></g><g id="body-T0569"><path d="M153.589,456.615 153.589,497.974 10,452.386Z"/><g fill="#000" stroke="none"><text x="105.726" y="468.992" font-size="2.4" text-anchor="middle">body-T0569</text><text x="153.589" y="477.294" font-size="1.8" text-anchor="middle">E1</text><text x="81.794" y="475.18" font-size="1.8" text-anchor="middle">E2</text><text x="81.794" y="454.501" font-size="1.8" text-anchor="middle">E3</text></g></g><g id="body-T0777"><path d="M266.034,80.871 266.034,130.602 10,73.323Z"/><g fill="#000" stroke="none"><text x="180.689" y="94.932" font-size="2.4" text-anchor="middle">body-T0777</text><text x="266.034" y="105.736" font-size="1.8" text-anchor="middle">E1</text><text x="138.017" y="101.962" font-size="1.8" text-anchor="middle">E2</text><text x="138.017" y="77.097" font-size="1.8" text-anchor="middle">E3</text></g></g><g id="body-T0859"><path d="M294.502,392.766 294.502,441.679 189.788,389.41Z"/><g fill="#000" stroke="none"><text x="259.597" y="407.952" font-size="2.4" text-anchor="middle">body-T0859</text><text x="294.502" y="417.223" font-size="1.8" text-anchor="middle">E1</text><text x="242.145" y="415.545" font-size="1.8" text-anchor="middle">E2</text><text x="242.145" y="391.088" font-size="1.8" text-anchor="middle">E3</text></g></g><g id="body-T1243"><path d="M231.616,140.831 231.616,193.878 10,136.602Z"/><g fill="#000" stroke="none"><text x="157.744" y="157.104" font-size="2.4" text-anchor="middle">body-T1243</text><text x="231.616" y="167.355" font-size="1.8" text-anchor="middle">E1</text><text x="120.808" y="165.24" font-size="1.8" text-anchor="middle">E2</text><text x="120.808" y="138.716" font-size="1.8" text-anchor="middle">E3</text></g></g><g id="body-T2240"><path d="M140.166,263.15 266.65,263.15 267.324,320.278Z"/><g fill="#000" stroke="none"><text x="224.713" y="282.192" font-size="2.4" text-anchor="middle">body-T2240</text><text x="203.408" y="263.15" font-size="1.8" text-anchor="middle">E1</text><text x="266.987" y="291.714" font-size="1.8" text-anchor="middle">E2</text><text x="203.745" y="291.714" font-size="1.8" text-anchor="middle">E3</text></g></g><g id="body-T2241"><path d="M134.166,263.15 134.166,320.282 10,270.132Z"/><g fill="#000" stroke="none"><text x="92.777" y="284.521" font-size="2.4" text-anchor="middle">body-T2241</text><text x="134.166" y="291.716" font-size="1.8" text-anchor="middle">E1</text><text x="72.083" y="295.207" font-size="1.8" text-anchor="middle">E2</text><text x="72.083" y="266.641" font-size="1.8" text-anchor="middle">E3</text></g></g><g id="body-T2254"><path d="M10,326.282 135.539,326.282 134.817,383.41Z"/><g fill="#000" stroke="none"><text x="93.452" y="345.325" font-size="2.4" text-anchor="middle">body-T2254</text><text x="72.769" y="326.282" font-size="1.8" text-anchor="middle">E1</text><text x="135.178" y="354.846" font-size="1.8" text-anchor="middle">E2</text><text x="72.408" y="354.846" font-size="1.8" text-anchor="middle">E3</text></g></g><g id="body-T2377"><path d="M183.788,418.243 183.788,446.386 10,389.41Z"/><g fill="#000" stroke="none"><text x="125.859" y="418.013" font-size="2.4" text-anchor="middle">body-T2377</text><text x="183.788" y="432.315" font-size="1.8" text-anchor="middle">E1</text><text x="96.894" y="417.898" font-size="1.8" text-anchor="middle">E2</text><text x="96.894" y="403.826" font-size="1.8" text-anchor="middle">E3</text></g></g><g id="body-T2519"><path d="M251.893,17.593 251.893,67.323 10,10Z"/><g fill="#000" stroke="none"><text x="171.262" y="31.639" font-size="2.4" text-anchor="middle">body-T2519</text><text x="251.893" y="42.458" font-size="1.8" text-anchor="middle">E1</text><text x="130.947" y="38.661" font-size="1.8" text-anchor="middle">E2</text><text x="130.947" y="13.796" font-size="1.8" text-anchor="middle">E3</text></g></g><g id="body-T3421"><path d="M254.29,209.077 254.29,257.15 10,199.878Z"/><g fill="#000" stroke="none"><text x="172.86" y="222.035" font-size="2.4" text-anchor="middle">body-T3421</text><text x="254.29" y="233.113" font-size="1.8" text-anchor="middle">E1</text><text x="132.145" y="228.514" font-size="1.8" text-anchor="middle">E2</text><text x="132.145" y="204.478" font-size="1.8" text-anchor="middle">E3</text></g></g></g>
</svg>
