<?xml version="1.0" encoding="UTF-8"?>
<svg xmlns="http://www.w3.org/2000/svg" width="304.8mm" height="508mm" viewBox="0 0 304.8 508" role="img" aria-labelledby="title desc">
<title id="title">Manual trim sheet 78</title><desc id="desc">Print or reference after laser marking for mechanical trimming. Triangle borders are documentation, not enabled laser cutting paths.</desc>
<g id="manual-trim-only" fill="none" stroke="#000" stroke-width="0.18"><g id="body-T1269"><path d="M205.509,308.006 205.509,395.298 10,303.531Z"/><g fill="#000" stroke="none"><text x="140.34" y="335.612" font-size="2.4" text-anchor="middle">body-T1269</text><text x="205.509" y="351.652" font-size="1.8" text-anchor="middle">E1</text><text x="107.755" y="349.415" font-size="1.8" text-anchor="middle">E2</text><text x="107.755" y="305.769" font-size="1.8" text-anchor="middle">E3</text></g></g><g id="body-T1878"><path d="M10,107.863 167.193,107.863 180.633,199.715Z"/><g fill="#000" stroke="none"><text x="119.275" y="138.48" font-size="2.4" text-anchor="middle">body-T1878</text><text x="88.596" y="107.863" font-size="1.8" text-anchor="middle">E1</text><text x="173.913" y="153.789" font-size="1.8" text-anchor="middle">E2</text><text x="95.317" y="153.789" font-size="1.8" text-anchor="middle">E3</text></g></g><g id="body-T1885"><path d="M203.83,405.216 203.83,493.055 10,401.298Z"/><g fill="#000" stroke="none"><text x="139.22" y="433.19" font-size="2.4" text-anchor="middle">body-T1885</text><text x="203.83" y="449.135" font-size="1.8" text-anchor="middle">E1</text><text x="106.915" y="447.176" font-size="1.8" text-anchor="middle">E2</text><text x="106.915" y="403.257" font-size="1.8" text-anchor="middle">E3</text></g></g><g id="body-T2316"><path d="M10,10 230.736,10 244.104,101.863Z"/><g fill="#000" stroke="none"><text x="161.613" y="40.621" font-size="2.4" text-anchor="middle">body-T2316</text><text x="120.368" y="10" font-size="1.8" text-anchor="middle">E1</text><text x="237.42" y="55.931" font-size="1.8" text-anchor="middle">E2</text><text x="127.052" y="55.931" font-size="1.8" text-anchor="middle">E3</text></g></g><g id="body-T2616"><path d="M10,205.715 216.723,205.715 230.405,297.531Z"/><g fill="#000" stroke="none"><text x="152.376" y="236.32" font-size="2.4" text-anchor="middle">body-T2616</text><text x="113.362" y="205.715" font-size="1.8" text-anchor="middle">E1</text><text x="223.564" y="251.623" font-size="1.8" text-anchor="middle">E2</text><text x="120.202" y="251.623" font-size="1.8" text-anchor="middle">E3</text></g></g><g id="jaw-T0028"><path d="M209.83,401.298 286.03,401.298 267.652,406.373Z"/><g fill="#000" stroke="none"><text x="254.504" y="402.99" font-size="2.4" text-anchor="middle">jaw-T0028</text><text x="247.93" y="401.298" font-size="1.8" text-anchor="middle">E1</text><text x="276.841" y="403.836" font-size="1.8" text-anchor="middle">E2</text><text x="238.741" y="403.836" font-size="1.8" text-anchor="middle">E3</text></g></g></g>
</svg>
