<?xml version="1.0" encoding="UTF-8"?>
<svg xmlns="http://www.w3.org/2000/svg" width="304.8mm" height="508mm" viewBox="0 0 304.8 508" role="img" aria-labelledby="title desc">
<title id="title">Manual trim sheet 323</title><desc id="desc">Print or reference after laser marking for mechanical trimming. Triangle borders are documentation, not enabled laser cutting paths.</desc>
<g id="manual-trim-only" fill="none" stroke="#000" stroke-width="0.18"><g id="body-T0168"><path d="M118.316,87.339 118.316,133.754 10,74.898Z"/><g fill="#000" stroke="none"><text x="82.211" y="98.664" font-size="2.4" text-anchor="middle">body-T0168</text><text x="118.316" y="110.546" font-size="1.8" text-anchor="middle">E1</text><text x="64.158" y="104.326" font-size="1.8" text-anchor="middle">E2</text><text x="64.158" y="81.118" font-size="1.8" text-anchor="middle">E3</text></g></g><g id="body-T1362"><path d="M10,463.834 144.178,463.834 185.434,497.965Z"/><g fill="#000" stroke="none"><text x="113.204" y="475.211" font-size="2.4" text-anchor="middle">body-T1362</text><text x="77.089" y="463.834" font-size="1.8" text-anchor="middle">E1</text><text x="164.806" y="480.9" font-size="1.8" text-anchor="middle">E2</text><text x="97.717" y="480.9" font-size="1.8" text-anchor="middle">E3</text></g></g><g id="body-T1759"><path d="M135.047,19.985 135.047,68.898 10,10Z"/><g fill="#000" stroke="none"><text x="93.364" y="32.961" font-size="2.4" text-anchor="middle">body-T1759</text><text x="135.047" y="44.442" font-size="1.8" text-anchor="middle">E1</text><text x="72.523" y="39.449" font-size="1.8" text-anchor="middle">E2</text><text x="72.523" y="14.992" font-size="1.8" text-anchor="middle">E3</text></g></g><g id="body-T2883"><path d="M220.003,399.018 220.003,457.834 10,411.813Z"/><g fill="#000" stroke="none"><text x="150.002" y="422.888" font-size="2.4" text-anchor="middle">body-T2883</text><text x="220.003" y="428.426" font-size="1.8" text-anchor="middle">E1</text><text x="115.001" y="434.824" font-size="1.8" text-anchor="middle">E2</text><text x="115.001" y="405.415" font-size="1.8" text-anchor="middle">E3</text></g></g><g id="body-T3113"><path d="M250.242,334.202 250.242,393.018 10,342.437Z"/><g fill="#000" stroke="none"><text x="170.161" y="356.553" font-size="2.4" text-anchor="middle">body-T3113</text><text x="250.242" y="363.61" font-size="1.8" text-anchor="middle">E1</text><text x="130.121" y="367.728" font-size="1.8" text-anchor="middle">E2</text><text x="130.121" y="338.32" font-size="1.8" text-anchor="middle">E3</text></g></g><g id="body-T3151"><path d="M250.704,25.416 250.704,68.859 141.047,10Z"/><g fill="#000" stroke="none"><text x="214.152" y="34.758" font-size="2.4" text-anchor="middle">body-T3151</text><text x="250.704" y="47.137" font-size="1.8" text-anchor="middle">E1</text><text x="195.875" y="39.43" font-size="1.8" text-anchor="middle">E2</text><text x="195.875" y="17.708" font-size="1.8" text-anchor="middle">E3</text></g></g><g id="body-T3183"><path d="M225.632,269.386 225.632,328.202 10,281.593Z"/><g fill="#000" stroke="none"><text x="153.755" y="293.061" font-size="2.4" text-anchor="middle">body-T3183</text><text x="225.632" y="298.794" font-size="1.8" text-anchor="middle">E1</text><text x="117.816" y="304.898" font-size="1.8" text-anchor="middle">E2</text><text x="117.816" y="275.49" font-size="1.8" text-anchor="middle">E3</text></g></g><g id="body-T3413"><path d="M244.621,139.754 244.621,198.57 10,150.624Z"/><g fill="#000" stroke="none"><text x="166.414" y="162.983" font-size="2.4" text-anchor="middle">body-T3413</text><text x="244.621" y="169.162" font-size="1.8" text-anchor="middle">E1</text><text x="127.31" y="174.597" font-size="1.8" text-anchor="middle">E2</text><text x="127.31" y="145.189" font-size="1.8" text-anchor="middle">E3</text></g></g><g id="body-T3482"><path d="M232.058,204.57 232.058,263.386 10,215.134Z"/><g fill="#000" stroke="none"><text x="158.039" y="227.697" font-size="2.4" text-anchor="middle">body-T3482</text><text x="232.058" y="233.978" font-size="1.8" text-anchor="middle">E1</text><text x="121.029" y="239.26" font-size="1.8" text-anchor="middle">E2</text><text x="121.029" y="209.852" font-size="1.8" text-anchor="middle">E3</text></g></g></g>
</svg>
