<?xml version="1.0" encoding="UTF-8"?>
<svg xmlns="http://www.w3.org/2000/svg" width="304.8mm" height="508mm" viewBox="0 0 304.8 508" role="img" aria-labelledby="title desc">
<title id="title">Manual trim sheet 47</title><desc id="desc">Print or reference after laser marking for mechanical trimming. Triangle borders are documentation, not enabled laser cutting paths.</desc>
<g id="manual-trim-only" fill="none" stroke="#000" stroke-width="0.18"><g id="body-T0056"><path d="M72.999,10 72.999,297.566 10,299.64Z"/><g fill="#000" stroke="none"><text x="51.999" y="202.402" font-size="2.4" text-anchor="middle">body-T0056</text><text x="72.999" y="153.783" font-size="1.8" text-anchor="middle">E1</text><text x="41.499" y="298.603" font-size="1.8" text-anchor="middle">E2</text><text x="41.499" y="154.82" font-size="1.8" text-anchor="middle">E3</text></g></g><g id="body-T0362"><path d="M249.949,10 249.949,288.158 171.198,299.541Z"/><g fill="#000" stroke="none"><text x="223.699" y="199.233" font-size="2.4" text-anchor="middle">body-T0362</text><text x="249.949" y="149.079" font-size="1.8" text-anchor="middle">E1</text><text x="210.574" y="293.849" font-size="1.8" text-anchor="middle">E2</text><text x="210.574" y="154.771" font-size="1.8" text-anchor="middle">E3</text></g></g><g id="body-T0427"><path d="M269.277,451.394 269.277,497.809 161.166,409.087Z"/><g fill="#000" stroke="none"><text x="233.24" y="452.763" font-size="2.4" text-anchor="middle">body-T0427</text><text x="269.277" y="474.601" font-size="1.8" text-anchor="middle">E1</text><text x="215.221" y="453.448" font-size="1.8" text-anchor="middle">E2</text><text x="215.221" y="430.24" font-size="1.8" text-anchor="middle">E3</text></g></g><g id="body-T0517"><path d="M261.928,310.257 261.928,403.087 10,305.64Z"/><g fill="#000" stroke="none"><text x="177.952" y="339.661" font-size="2.4" text-anchor="middle">body-T0517</text><text x="261.928" y="356.672" font-size="1.8" text-anchor="middle">E1</text><text x="135.964" y="354.363" font-size="1.8" text-anchor="middle">E2</text><text x="135.964" y="307.948" font-size="1.8" text-anchor="middle">E3</text></g></g><g id="body-T1703"><path d="M78.999,10 165.198,10 81.219,299.562Z"/><g fill="#000" stroke="none"><text x="108.472" y="106.521" font-size="2.4" text-anchor="middle">body-T1703</text><text x="122.099" y="10" font-size="1.8" text-anchor="middle">E1</text><text x="123.209" y="154.781" font-size="1.8" text-anchor="middle">E2</text><text x="80.109" y="154.781" font-size="1.8" text-anchor="middle">E3</text></g></g><g id="body-T1872"><path d="M10,409.087 155.166,409.087 144.823,497.987Z"/><g fill="#000" stroke="none"><text x="103.33" y="438.72" font-size="2.4" text-anchor="middle">body-T1872</text><text x="82.583" y="409.087" font-size="1.8" text-anchor="middle">E1</text><text x="149.995" y="453.537" font-size="1.8" text-anchor="middle">E2</text><text x="77.412" y="453.537" font-size="1.8" text-anchor="middle">E3</text></g></g></g>
</svg>
