<?xml version="1.0" encoding="UTF-8"?>
<svg xmlns="http://www.w3.org/2000/svg" width="304.8mm" height="508mm" viewBox="0 0 304.8 508" role="img" aria-labelledby="title desc">
<title id="title">Laser marking sheet 216</title><desc id="desc">Millimetre-scale outlined marking art clipped to exact unfolded surface facets. Contains marking artwork only; no perimeter cutting path.</desc>
<g id="laser-marking" fill="#000" fill-rule="evenodd"><path data-facet="body-T1040" d="M230.552,446.576 225.711,446.793 221.015,447.478 220.972,448.062 223.368,448.6 233.183,449.426 249.67,449.977 255.114,450.117 255.064,449.706 250.626,449.588 236.536,449.101 226.975,448.297 224.82,447.365 227.397,446.948 233.166,446.786 242.697,447.068 251.333,447.781 254.886,448.214 254.754,447.118 251.827,446.864 245.116,446.594 237.324,446.504ZM177.798,454.917 186.652,455.454 194.143,455.68 195.66,455.666 191.021,454.247 187.346,453.223 185.388,452.412 185.782,451.614 187.306,451.311 189.401,451.233 194.409,451.508 198.922,452.2 202.473,453.033 204.591,453.732 204.935,453.71 209.055,454.769 217.236,455.701 227.722,456.061 233.55,455.905 237.344,455.369 236.131,454.593 229.739,453.802 224.701,453.506 218.341,453.273 212.878,453.181 212.403,452.729 212.937,452.15 215.746,451.515 221.838,451.233 230.431,451.501 236.611,452.179 240.608,453.012 242.831,453.732 243.853,454.099 245.612,454.72 247.43,455.313 250.136,455.764 253.815,455.891 255.806,455.891 255.644,454.546 254.196,454.134 250.454,452.856 249.305,452.263 249.53,451.798 251.075,451.448 253.772,451.332 255.266,451.388 255.231,451.096 252.81,451.007 248.72,451.078 244.16,451.339 241.26,451.91 241.901,452.661 238.283,451.875 231.628,451.212 221.235,450.951 210.636,451.289 206.456,451.716 204.104,452.32 204.174,452.75 200.401,451.882 195.025,451.212 187.756,450.951 181.245,451.148 178.322,451.427 176.624,451.868 176.231,452.2 176.437,452.602 178.106,453.23 181.658,454.099 182.354,454.48 180.216,454.649 176.492,454.508 171.121,454.014 168.533,453.657 169.657,454.196 170.773,454.324ZM220.076,453.583 228.021,454.056 232.49,454.769 233.209,455.426 230.182,455.736 225.742,455.51 219.589,454.748 215.759,454.014 213.391,453.435ZM191.201,458.383 196.622,459.569 197.499,460.578 195.743,461.065 192.161,461.213 187.135,460.804 181.717,459.724 180.459,459.379 184.837,461.479 192.06,461.834 198.035,461.591 201.376,460.86 200.703,459.717 195.069,458.348 184.855,457.105 174.588,456.562 175.351,456.928 182.392,457.324ZM259.647,487.953 259.606,487.607 259.054,487.654Z"/><path data-facet="body-T1054" d="M34.938,451.106 36.198,451.783 37.151,451.532 41.621,451.32 48.071,451.596 53.42,452.224 56.567,452.831 52.935,453.445 52.128,453.749 53.029,454.158 55.803,454.299 59.616,454.13 59.648,454.419 59.423,454.681 57.149,455.281 52.426,455.514 46.243,455.26 41.61,454.689 43.62,455.768 49.398,455.965 54.84,455.867 58.966,455.57 63.304,454.568 63.091,453.678 60.388,452.76 66.157,452.577 72.935,452.831 77.443,453.735 77.753,453.715 82.316,454.695 92.208,455.683 98.346,455.969 105.054,456.064 111.752,455.958 117.753,455.612 119.118,455.387 118.577,455.245 116.683,455.217 113.585,455.588 108.982,455.711 103.401,455.556 95.746,454.928 88.661,453.953 83.756,452.859 82.663,451.857 84.094,451.507 87.051,451.391 93.396,451.687 99.029,452.429 103.642,453.311 106.797,454.017 110.053,454.652 115.194,454.907 118.528,454.864 121.97,454.85 115.595,453.848 112.09,452.711 111.65,451.772 112.849,451.454 115.233,451.348 120.002,451.603 124.438,452.245 127.506,452.9 127.571,452.348 125.316,451.892 120.156,451.235 113.696,450.967 107.407,451.151 103.731,451.899 103.456,452.351 103.775,452.803 100.804,452.28 96.392,451.673 91.148,451.179 85.703,450.981 78.978,451.313 75.353,452.181 76.022,452.975 74.304,452.654 65.419,452.365 59.502,452.549 51.175,451.454 45.831,451.121 39.983,451.01ZM126.798,456.05 127.121,456.161 127.134,456.05ZM107.804,486.492 112.063,487.621 114.03,487.494 111.206,486.661 107.02,485.793 101.146,485.115 98.083,485.015 98.762,485.38 102.081,485.553ZM110.788,490.12 109.042,489.937 107.247,489.937 107.931,490.304 111.046,490.304Z"/><path data-facet="body-T1563" d="M212.798,39.216 218.258,38.927 221.654,38.808 221.654,37.689 220.431,37.822ZM215.692,41.535 217.983,41.281 221.654,40.485 221.654,40 214.839,41.477ZM221.654,43.8 221.654,43.661 221.21,43.807ZM162.888,49.701 157.096,50.081 151.106,51.062 148.17,51.755 144.892,52.484 151.313,52.006 160.762,51.524 171.939,51.068 183.633,50.658 194.361,50.337 187.149,50.987 180.18,51.752 171.074,52.943 160.424,54.544 152.306,56.005 150.896,56.33 153.015,56.243 158.341,56.039 165.032,55.838 171.261,55.765 175.146,55.921 176.305,56.173 176.022,56.635 174.303,57.11 168.587,58.023 161.856,58.653 155.205,59.022 149.848,59.112 149.614,59.189 141.98,59.549 129.174,61.02 122.306,62.132 115.515,63.478 109.396,64.945 104.74,66.411 104.166,66.834 105.154,66.806 107.076,66.427 108.846,65.554 112.885,64.515 118.785,63.441 128.246,62.219 138.295,61.327 146.634,60.965 150.991,61.344 150.76,61.856 148.289,62.545 141.185,63.694 133.305,64.423 125.944,64.854 120.574,65.086 115.338,65.382 109.536,66.304 106.456,67.028 103.179,67.757 112.636,67.03 119.763,66.987 123.28,67.464 123.168,67.908 121.215,68.471 115.773,69.316 109.374,69.854 103.195,70.15 100.083,70.224 102.525,70.612 102.525,70.612 105.222,71.041 105.239,71.021 102.943,70.599 103.478,70.582 109.689,70.252 116.833,69.571 123.954,68.381 129.423,66.953 130.508,65.729 129.286,65.397 127.49,65.19 132.079,64.885 138.339,64.33 145.029,63.532 150.938,62.512 156.339,60.903 156.98,59.617 155.242,59.435 160.967,59.125 168.87,58.307 176.997,56.899 182.51,55.443 184.241,54.699 184.153,54.136 183.232,53.897 181.458,53.75 177.385,53.803 170.554,54.137 168.39,54.103 169.79,53.576 173.939,52.863 181.061,51.971 191.856,50.936 206.684,50.127 209.275,49.817 212.548,49.135 215.174,48.594 217.478,48.197 200.04,48.612 181.471,49.085ZM212.87,82.485 209.592,83.214 216.014,82.735 221.654,82.448 221.654,80.834 215.806,81.792ZM215.596,87.059 217.716,86.973 221.654,86.822 221.654,85.898 217.006,86.735Z"/><path data-facet="body-T1697" d="M257.931,383.446 250.12,384.565 248.078,385.495 249.901,386.004 253.446,386.13 256.686,385.98 258.676,385.661 255.959,385.496 253.798,385.218 252.982,384.855 253.672,384.42 256.241,384.032 264.734,383.597 264.956,383.606 264.956,382.982ZM254.133,388.379 247.197,387.562 247.089,387.576 240.719,386.875 230.914,386.747 220.672,387.373 215.53,388.038 212.095,388.786 209.927,390.334 211.995,391.294 216.569,392.03 211.284,392.821 204.092,393.233 197.773,392.697 197.728,392.706 191.154,391.893 185.769,391.511 180.292,391.81 177.83,392.113 175.222,392.43 173.897,392.549 179.541,392.699 186.819,393.294 193.556,394.029 187.337,393.818 180.26,393.733 173.061,393.708 165.599,393.765 159.303,394.121 157.997,394.276 155.469,395.023 156.373,395.264 161.941,395.981 168.259,396.657 162.352,396.451 155.255,396.331 146.663,396.441 136.5,396.788 128.596,397.311 127.143,397.481 128.939,397.658 133.451,398.139 138.995,398.812 144.109,399.548 147.193,400.244 147.863,400.621 147.187,401.083 145.335,401.369 139.395,401.669 133.346,401.486 127.758,401.014 123.344,400.429 123.162,400.466 116.275,399.793 111.193,399.73 126.443,402.902 127.149,402.694 127.816,401.828 126.718,401.44 132.345,401.917 139.534,402.064 147.613,401.579 153.254,400.732 155.458,399.534 151.818,398.384 145.174,397.676 143.452,397.352 145.091,396.958 149.208,396.717 155.906,396.673 161.789,396.836 168.703,397.189 174.847,397.688 178.428,398.303 181.817,397.718 182.849,397.061 182.791,396.955 182.578,396.847 179.733,396.164 175.591,395.653 172.958,395.358 170.291,395.002 169.003,394.623 170.076,394.325 173.599,394.127 177.818,394.071 180.911,394.076 190.421,394.374 202.986,395.454 205.163,395.479 208.843,395.144 211.553,394.871 213.863,394.715 204.151,393.502 212.452,392.979 217.883,392.173 228.353,392.53 234.302,392.352 240.282,391.877 245.42,391.206 248.844,390.438 251.007,388.881 249.867,388.42 253.297,388.829 262.954,389.112 264.956,389.033 264.956,388.659 262.82,388.725ZM224.539,391.91 220.177,391.562 222.463,390.514 222.622,390.096 220.88,389.737 217.86,389.864 214.466,390.441 213.83,390.125 213.505,389.813 214.485,388.92 218.64,388.18 225.247,387.83 232.07,388.015 237.906,388.658 241.394,389.386 242.904,390.17 241.973,391.012 238.023,391.702 231.109,392.057ZM263.821,429.204 254.017,429.076 252.672,429.159 264.956,431.714 264.956,429.329Z"/><path data-facet="body-T1899" d="M158.793,269.974 162.45,267.943 162.113,267.56 153.683,269.169 154.04,269.996 152.266,271.08 148.095,272.156 141.786,272.996 136.354,273.204 133.348,273.051 129.372,273.809 129.419,273.819 123.991,275.097 118.848,275.818 118.197,275.942 118.197,275.942 109.07,277.684 110.12,277.838 106.495,279.275 104.053,280.636 99.935,281.324 96.175,281.674 89.751,281.633 88.939,281.527 86.451,282.002 87.895,282.211 94.548,282.292 98.7,281.921 103.485,281.173 103.165,281.719 103.615,283.646 107.388,284.864 114.115,285.034 118.501,284.616 123.57,283.788 129.186,282.511 132.065,281.16 129.469,279.121 121.403,277.138 123.629,275.931 123.28,275.447 123.265,275.448 124.803,275.222 130.373,273.917 138.886,273.736 144.166,273.169 149.817,272.237 154.98,271.114ZM107.136,280.122 108.761,279.076 111.402,278.022 113.764,278.522 107.848,279.986ZM115.011,284.155 109.744,283.65 106.704,282.367 106.462,280.624 111.436,279.581 115.072,278.664 120.345,280.126 123.834,281.613 124.282,282.143 124.271,282.592 123.461,283.166 121.767,283.629 118.491,284.04ZM60.598,289.222 65.015,288.022 69.305,286.206 68.191,285.627 66.613,285.788 59.64,287.119 58.675,287.732 56.542,288.996 50.441,290.776 45.248,290.9 44.182,290.069 35.129,291.797 36.57,292.762 42.927,292.378 42.785,292.405 36.05,293.46 30.937,293.744 27.063,293.337 25.856,293.567 25.856,293.567 17.986,295.069 18.907,295.285 19.916,296.043 18.72,296.681 15.406,297.481 13.591,297.73 14.413,297.99 16.274,297.726 20.825,296.757 23.942,295.862 26.687,294.415 26.618,294.11 32.669,294.13 37.323,293.634 43.145,292.653 48.177,291.618 55.234,290.364ZM56,289.92 53.32,290.394 58.496,288.791 60.842,287.486 62.44,287.563 62.757,287.885 60.846,288.771ZM158.798,305.412 162.336,305.631 165.846,306.005 166.747,306.118 166.747,304.287 165.815,304.333ZM155.5,308.986 157.262,308.892 166.747,307.081 166.747,306.597 155.162,308.808ZM160.166,312.885 155.527,312.279 153.708,312.794 156.825,313.299 161.264,313.598 166.747,313.375 166.747,312.913 166.109,312.99ZM129.24,320.344 132.896,318.313 131.758,317.021 126.457,316.467 118.245,316.889 108.782,318.257 103.624,319.372 99.824,320.488 96.173,322.508 96.821,323.559 99.865,324.189 98.341,324.548 98.921,324.732 100.819,324.287 109.332,324.106 114.612,323.539 120.263,322.607 125.426,321.484ZM106.8,323.574 103.486,323.405 106.655,321.989 107.276,321.47 106.209,321.133 103.485,321.467 99.92,322.371 99.746,322.022 99.831,321.661 101.707,320.511 106.11,319.363 112.153,318.545 117.755,318.371 121.984,318.812 124.111,319.496 124.486,320.366 122.712,321.45 118.541,322.526 112.232,323.367Z"/><path data-facet="body-T2033" d="M157.538,117.127 161.957,116.122 164.717,115.219 162.085,115.72 161.884,115.796 157.577,116.821 154.204,117.221 150.764,117.876 151.047,117.915ZM137.862,122.029 133.882,123.011 127.773,123.801 122.907,123.833 120.956,123.552 116.867,124.33 120.601,124.654 127.117,124.346 135.234,123.164 140.172,122.105 144.164,120.988 149.189,118.866 149.426,118.13 141.092,119.718 141.166,119.787 140.29,120.97ZM83.5,132.409 81.175,132.973 77.03,133.408 73.274,133.247 71.484,132.972 69.48,133.353 69.107,133.424 68.98,133.449 61.718,134.831 61.954,135.812 60.119,136.721 56.944,137.512 52.412,138.086 47.447,138.108 45.588,137.903 33.602,140.185 33.85,140.287 34.124,141.335 32.615,142.042 29.49,142.814 24.491,143.412 20.393,143.306 18.613,143.039 15.861,143.563 10,144.679 15.166,145.289 15.977,145.014 16.467,144.744 16.786,144.525 16.348,143.643 18.699,144.03 23.563,144.045 30.299,143.145 34.666,142.206 38.088,141.233 41.94,139.493 42.336,139.072 42.335,138.709 45.549,139.001 50.189,138.976 57.096,138.024 61.471,137.079 66.27,135.736 69.507,134.188 69.487,133.583 69.514,133.589 74.464,133.99 81.983,133.304 83.52,133.03 89.383,131.624 93.559,129.887 93.516,128.777 84.141,130.562 84.841,130.885 84.78,131.801ZM142.747,160.141 141.971,160.264 148.291,161.011 146.785,160.547 144.651,160.086ZM254.637,100.384 259.377,99.124 264.567,97.138 264.168,96.422 262.716,96.558 255.742,97.886 254.39,98.573 251.483,99.984 244.826,101.867 240.415,101.84 240.283,100.83 231.229,102.554 231.551,103.733 237.16,103.495 237.018,103.522 230.491,104.534 226.002,104.696 223.162,104.09 220.342,104.627 220.594,104.7 220.327,104.63 212.516,106.117 213.319,106.617 213.069,107.28 211.486,108.071 208.775,108.75 204.232,109.243 199.261,109.042 198.146,108.854 195.541,109.35 197.134,109.578 200.394,109.787 204.726,109.652 210.127,108.903 216.03,107.556 220.295,106.109 220.785,105.839 221.104,105.619 220.656,104.718 221.467,104.954 227.087,105.208 231.387,104.78 237.092,103.825 242.192,102.779 249.165,101.544ZM250.201,101.049 247.554,101.515 253.286,99.809 256.406,98.357 257.659,98.5 257.632,98.888 255.249,99.864ZM185.741,113.024 182.175,113.89 175.228,114.784 170.31,114.676 169.039,114.396 165.949,114.984 171.993,115.465 176.808,115.101 182.874,114.13 184.383,113.833 186.064,113.485 191.778,111.884 194.544,110.453 195.106,109.759 195.027,109.447 187.335,110.912 187.703,111.122 187.496,112.206ZM260.435,140.482 260.298,140.52 256.929,139.658 253.559,139.358 248.713,140.01 246.22,140.531 243.584,141.08 242.332,141.3 246.378,141.266 250.744,141.787 254.338,142.538 249.983,142.51 244.715,142.692 237.796,143.198 229.563,144.067 222.738,145.086 221.285,145.382 222.283,145.555 224.713,146.044 227.53,146.757 229.892,147.575 230.795,148.42 230.523,148.919 229.057,149.59 227.06,150.063 222.003,150.709 217.788,150.701 214.523,150.269 212.31,149.646 210.339,150.189 212.521,150.883 215.997,151.368 221.077,151.296 228.212,150.292 234.529,148.828 237.407,147.907 239.105,146.987 239.505,146.472 239.31,145.997 237.857,145.471 234.567,144.923 233.852,144.742 233.93,144.541 235.846,143.952 239.328,143.475 244.502,143.143 250.992,143.175 258.523,144.166 260.322,144.084 263.61,143.495 266.271,143.017 267.913,142.789 267.913,142.646 263.474,141.361 267.913,140.822 267.913,140.518 263.811,141.005ZM189.444,157.198 194.633,155.212 194.234,154.496 190.46,154.851 190.376,154.829 186.699,154.01 182.8,153.102 178.186,152.787 174.942,153.055 170.728,153.741 167.494,154.422 165.078,155.152 166.126,155.102 168.449,154.585 170.488,154.122 174.403,153.787 174.885,154.571 172.19,155.989 167.991,157.563 163.821,159.112 161.243,160.433 161.618,161.806 167.227,161.568 167.085,161.595 161.1,162.523 162.465,162.685 167.159,161.898 172.259,160.853 179.232,159.618 184.704,158.457ZM174.893,159.941 170.482,159.914 170.326,158.722 172.841,157.18 176.282,155.462 178.664,154.076 178.957,153.787 179.05,153.573 182.411,154.108 185.455,154.815 188.295,155.282 185.868,155.93 184.457,156.646 181.55,158.058ZM177.621,159.589 183.352,157.882 186.473,156.43 187.726,156.574 187.698,156.962 185.316,157.937 180.268,159.122Z"/><path data-facet="body-T3062" d="M195.144,220.387 186.552,218.837 184.175,218.586 181.097,218.558 178.494,218.53 176.485,218.427 191.673,221.69 195.088,222.412ZM167.408,220.303 159.133,219.185 150.286,218.306 130.221,217.167 106.562,216.787 93.1,217.054 94.303,217.574 107.099,217.271 117.509,217.395 127.346,217.765 145.283,219.108 160.891,221.037 174.153,223.293 184.868,225.511 194.485,227.655 194.94,227.756 194.971,226.615 191.044,225.586 182.236,223.256ZM187.752,231.113 167.194,231.439 157.551,231.397 148.767,231.122 134.196,230.069 124.202,228.624 119.619,227.114 120.74,225.987 127.19,225.269 133.409,225.138 142.249,225.418 149.163,226.098 153.8,226.863 155.675,227.394 155.695,227.413 157.173,227.524 158.238,227.263 152.561,225.865 143.222,224.952 132.581,224.635 125.455,224.803 119.461,225.29 115.548,226.005 114.704,226.392 123.81,230.327 127.631,230.927 141.972,232.017 160.84,232.427 163.684,232.427 167.298,232.39 179.841,232.101 191.772,231.626 194.837,231.476 194.854,230.861Z"/></g>
</svg>
