<?xml version="1.0" encoding="UTF-8"?>
<svg xmlns="http://www.w3.org/2000/svg" width="304.8mm" height="508mm" viewBox="0 0 304.8 508" role="img" aria-labelledby="title desc">
<title id="title">Laser marking sheet 290</title><desc id="desc">Millimetre-scale outlined marking art clipped to exact unfolded surface facets. Contains marking artwork only; no perimeter cutting path.</desc>
<g id="laser-marking" fill="#000" fill-rule="evenodd"><path data-facet="body-T0709" d="M74.815,377.055 71.21,378.363 68.128,379.567 65.568,380.668 62.797,382.181 62.782,382.497 63.679,382.521 67.015,381.939 72.21,380.627 78.535,378.792 85.263,376.641 89.583,375.166 92.721,374.034 80.519,375.139 78.942,375.644ZM113.359,383.443 99.965,388.484 87.11,393.139 84.87,393.909 88.795,394.558 97.623,391.576 98.327,391.332 93.693,393.131 89.779,394.72 91.748,395.046 94.152,394 104.523,389.781 115.614,385.44 126.271,381.396 126.905,381.165 136.272,377.663 145.058,374.292 153.263,371.05 160.887,367.937 161.13,367.835 149.478,368.89 139.133,373.245 126.654,378.272ZM130.597,371.215 132.68,370.413 123.275,371.265 101.861,379.398 82.922,386.496 69.651,391.392 76.479,392.521 87.159,388.242 107.45,380.237ZM79.446,382.999 77.053,383.468 75.415,383.932 73.483,384.548 59.677,389.743 61.064,389.973 62.124,389.558ZM134.284,389.561 145.778,385.103 174.077,374.423 173.659,374.505 186.129,369.785 199.782,364.332 189.062,365.303 181.271,368.501 171.431,372.42 156.102,378.407 154.494,378.258 153.881,377.431 155.436,375.762 160.33,373.09 168.014,369.688 176.079,366.48 171.654,366.881 168.556,368.083 163.322,370.212 158.62,372.236 150.811,375.971 148.403,377.394 146.827,378.687 146.126,380.6 147.033,381.065 148.84,381.083 135.487,385.881 126.64,388.954 117.224,392.134 105.877,395.825 102.59,396.838 106.258,397.445 110.485,396.192 120.47,393.066 131.343,389.509 139.925,386.61 133.782,388.951 126.089,391.954 119.412,394.654 113.752,397.053 111.106,398.246 113.306,398.61 117.326,396.515 124.561,393.431ZM224.062,377.462 212.282,381.992 201.38,386.301 192.338,390.064 186.138,392.953 184.31,394.001 183.606,394.696 184.027,395.036 185.571,395.022 187.901,394.682 191.13,394 195.258,392.978 200.285,391.615 206.059,389.946 212.427,388.005 219.389,385.794 226.945,383.312 239.503,379.034 252.233,374.517 241.12,378.888 230.384,383.225 221.161,387.13 214.588,390.206 212.528,391.35 211.594,392.118 211.785,392.51 213.103,392.527 215.504,392.17 219.399,391.396 224.872,390.101 232.007,388.179 236.272,386.941 241.1,385.463 252.446,381.786 258.523,379.721 259.219,379.476 259.219,377.265 254.114,379.112 247.232,381.516 240.627,383.754 233.75,385.996 228.366,387.64 224.473,388.687 222.073,389.136 221.299,388.932 222.59,387.996 225.944,386.325 231.363,383.921 243.933,378.717 259.219,372.649 259.219,369.747 257.698,370.321 237.997,377.601 226.945,381.518 215.254,385.493 207.945,387.872 202.188,389.62 197.981,390.737 195.325,391.223 194.143,391.001 195.713,389.87 200.034,387.832 207.107,384.885 216.315,381.234 227.044,377.08 253.062,367.265 253,367.275 254.298,366.817 259.219,365.005 259.219,364.328 247.099,368.815ZM234.979,366.83 214.407,374.637 202.833,378.965 191.15,383.248 180.038,387.212 170.175,390.587 164.732,392.356 160.415,393.658 157.222,394.494 155.155,394.863 154.87,394.577 156.872,393.46 161.161,391.512 166.847,389.11 170.268,387.999 180.056,384.632 188.171,381.612 191.176,380.383 192.915,379.542 193.386,379.089 192.59,379.025 193.364,378.73 213.067,371.184 214.096,370.796 214.059,370.804 224.618,366.759 240.665,360.627 237.911,360.877 236.686,361.349 210.153,371.49 202.488,374.473 188.876,379.602 187.054,380.003 182.995,381.128 177.696,382.757 171.157,384.891 159.887,388.548 148.252,392.125 142.492,393.803 137.028,395.301 131.86,396.617 126.99,397.752 129.083,396.606 132.346,395.122 136.777,393.302 142.377,391.144 148.771,388.781 155.581,386.345 162.809,383.836 170.453,381.255 183.729,376.884 197.687,372.396 225.899,363.448 232.372,361.378 227.246,361.843 205.066,368.475 183.197,374.998 172.308,378.382 161.287,381.973 150.908,385.475 141.946,388.59 134.399,391.317 128.269,393.656 123.374,395.651 119.532,397.349 116.744,398.747 116.204,399.089 125.229,400.581 128.464,399.931 134.5,398.491 141.718,396.586 149.358,394.446 156.664,392.302 157.04,392.186 153.671,393.596 147.317,396.527 145.327,397.615 144.443,398.343 144.665,398.712 145.993,398.721 147.869,398.442 150.641,397.865 158.87,395.816 164.264,394.322 170.426,392.484 177.357,390.304 185.057,387.781 198.752,383.106 211.199,378.628 222.504,374.394 232.775,370.449 249.962,363.734 256.923,361.085 259.219,360.278 259.219,358.946 254.822,359.344 247.585,362.043ZM135.078,397.496 132.208,398.176 127.926,398.901 125.992,398.852 135.645,396.323 146.276,393.313 157.618,389.875 169.406,386.059 165.895,387.513 161.892,389.039 157.551,390.596 153.024,392.141 145.681,394.488 138.435,396.603ZM250.744,387.21 248.519,387.226 248.013,386.715 249.224,385.677 252.154,384.111 256.413,382.141 259.219,380.926 259.219,379.877 257.429,380.598 251.212,383.215 246.118,385.492 242.147,387.429 239.595,388.935 238.762,389.922 239.646,390.388 242.247,390.335 246.954,389.705 252.799,388.566 259.219,387.05 259.219,385.522 257.175,386.039 253.518,386.812Z"/><path data-facet="body-T1086" d="M34.542,289.156 34.562,289.163 36.316,289.457 38.24,289.555 38.133,289.156ZM125.289,289.163 127.07,289.457 129.003,289.555 128.847,289.156 125.272,289.156ZM173.036,293.676 173.99,298.357 174.091,300.603 173.905,302.688 173.434,304.612 172.677,306.375 171.253,308.687 169.863,310.243 169.104,310.758 168.2,311.126 165.96,311.42 164.808,311.217 163.735,310.607 162.739,309.591 161.822,308.169 160.175,304.398 158.749,299.591 157.549,294.012 156.777,289.156 148.982,289.156 150.888,300.656 151.846,304.654 153.089,308.014 154.617,310.737 156.431,312.822 158.403,314.367 160.407,315.471 162.443,316.133 164.51,316.354 166.284,316.233 167.959,315.871 169.535,315.266 171.013,314.42 172.393,313.332 173.674,312.002 175.941,308.617 176.796,306.662 177.383,304.496 177.701,302.121 177.75,299.535 176.999,294.124 175.262,289.156 171.231,289.156Z"/><path data-facet="body-T1309" d="M253.686,24.252 253.443,25.618 254.435,26.541 225.021,40.448 209.565,47.748 198.57,53.03 187.217,58.456 198.717,51.952 203.355,49.134 206.99,46.74 210.657,44.12 213.83,41.43 216.219,38.922 217.531,36.845 217.37,35.513 215.341,35.243 213.5,35.517 185.007,49.287 166.342,58.427 171.933,59.387 174.148,58.314 190.874,49.949 195.233,47.857 199.078,46.202 201.072,45.438 202.751,44.87 204.114,44.498 205.161,44.322 206.006,44.528 205.576,45.407 203.497,47.131 199.394,49.874 192.962,53.747 183.473,59.121 180.309,60.826 186.668,61.918 188.074,61.24 224.907,43.598 241.248,35.828 255.8,28.902 255.8,21.909 255.162,22.44ZM133.332,47.755 141.159,44.951 144.55,43.844 147.395,43.016 149.695,42.467 151.45,42.198 152.622,42.221 153.023,42.564 152.654,43.227 151.515,44.21 147.298,46.935 140.744,50.538 135.573,53.144 141.809,54.214 143.712,53.305 149.302,50.516 154.3,47.89 158.623,45.482 162.185,43.344 164.985,41.475 167.024,39.877 168.16,38.625 168.252,37.793 167.299,37.383 165.301,37.393 161.834,37.894 157.51,38.862 152.328,40.298 146.289,42.202 139.666,44.459 132.732,46.953 125.486,49.684 122.427,50.886 124.394,51.224 124.505,51.179ZM119.566,44.492 120.721,43.68 121.059,43.142 120.58,42.879 119.284,42.891 115.867,43.471 112.302,44.065 111.327,44.038 108.74,45.821 104.996,47.893 111.155,48.95 114.734,47.145ZM218.306,57.829 218.753,57.63 216.136,59.225 214.724,60.396 214.572,61.142 215.679,61.462 218.045,61.356 219.967,61.096 222.324,60.616 225.115,59.915 228.341,58.994 222.588,61.977 217.679,64.682 214.349,66.671 217.446,67.203 221.102,64.858 226.612,61.725 232.544,58.597 238.036,55.9 249.01,52.092 255.8,49.624 255.8,46.248 251.852,47.96 241.845,52.511 232.537,56.944 229.431,57.854 226.704,58.549 224.357,59.029 222.389,59.293 220.791,59.307 220.149,58.985 220.463,58.326 221.731,57.332 224.115,55.917 227.772,53.998 238.909,48.647 238.679,48.695 253.671,41.857 255.8,40.85 255.8,37.906 253.945,38.806 245.036,42.952 230.126,49.755 209.921,58.817 198.245,63.906 202.632,64.659 203.759,64.18ZM157.321,56.063 155.979,56.496 155.703,56.6 156.966,56.817 159.462,55.622ZM241.912,61.391 233.507,64.652 226.228,67.253 223.288,68.206 226.947,68.834 230.43,67.725 237.266,65.383 244.302,62.849 251.536,60.122 255.8,58.447 255.8,55.596 250.307,57.949ZM244.05,65.492 239.941,68.18 238.9,69.154 238.748,69.798 239.488,70.112 241.118,70.095 243.302,69.773 246.149,69.134 249.659,68.178 253.831,66.904 255.8,66.252 255.8,64.468 254.139,65.055 250.627,66.099 248.221,66.556 246.774,66.353 247.471,65.304 250.313,63.408 255.299,60.664 255.8,60.408 255.8,59.254 250.428,61.989Z"/><path data-facet="body-T2209" d="M244.517,79.809 244.792,80.332 244.958,80.708 244.958,79.789ZM240.453,83.951 236.436,82.608 233.064,80.534 232.884,80.343 228.748,80.532 231.298,82.633 233.347,83.744 235.985,84.773 241.969,86.349 244.794,86.766 244.958,86.771 244.958,84.714 244.207,84.662ZM33.106,95.773 32.825,95.263 30.775,90.703 30.192,89.634 19.199,90.138 20.289,92.881ZM209.797,86.982 211.006,91.076 211.665,93.863 211.882,96.025 211.758,97.811 211.392,99.468 210.694,101.119 209.748,102.318 208.552,103.067 207.109,103.364 205.393,103.17 203.67,102.429 201.937,101.142 200.196,99.308 197.5,95.367 195.101,90.684 192.966,85.539 191.781,82.227 182.941,82.632 183.609,84.595 184.854,88.799 185.93,94.244 185.935,97.159 185.334,100.102 184.579,101.853 183.531,103.128 182.189,103.925 180.554,104.245 178.25,104.021 176.186,103.128 174.362,101.565 172.778,99.332 171.38,96.578 170.112,93.455 168.857,89.146 168.772,88.527 168.115,85.904 167.185,83.371 167.177,83.355 156.755,83.832 158.057,86.102 159.714,89.993 160.773,93.771 161.135,97.244 160.699,100.222 159.85,102.223 158.694,103.678 157.23,104.586 155.459,104.947 153.348,104.609 151.008,103.413 148.607,101.267 146.314,98.078 143.601,93.156 140.666,87.124 139.578,84.62 130.151,85.052 130.534,86.243 131.93,91.561 132.822,96.229 133.128,100.056 132.767,102.848 132.132,104.236 131.13,105.446 129.741,106.308 127.948,106.657 126.626,106.584 125.369,106.242 124.176,105.631 123.049,104.751 120.994,102.448 119.211,99.601 116.453,93.448 114.935,88.528 113.574,88.842 113.155,89.177 112.912,89.629 114.525,95.386 115.773,98.777 117.395,102.095 119.446,105.098 121.983,107.547 123.44,108.486 125.03,109.131 126.755,109.483 128.612,109.542 130.925,109.274 133.018,108.695 134.889,107.803 136.54,106.599 137.955,105.189 139.12,103.678 140.034,102.066 140.698,100.354 141.199,98.256 141.306,96.065 144.254,101.368 146.209,104.054 148.642,106.325 150.07,107.216 151.68,107.825 153.473,108.153 155.449,108.199 157.479,107.938 159.863,107.324 162.377,106.228 164.797,104.519 165.907,103.403 166.863,102.07 167.667,100.519 168.317,98.751 168.813,96.669 168.968,97.081 170.576,100.33 172.586,103.181 175.072,105.394 176.513,106.211 178.113,106.768 179.872,107.066 181.788,107.104 183.53,106.895 185.192,106.429 186.774,105.709 188.276,104.732 189.63,103.524 190.765,102.109 191.683,100.487 192.382,98.657 192.999,95.489 192.973,92.127 194.532,95.419 196.447,98.695 198.739,101.66 201.427,104.017 202.912,104.906 204.483,105.517 206.137,105.851 207.877,105.908 209.649,105.687 211.829,105.166 214.144,104.261 216.321,102.886 217.302,101.99 218.137,100.911 219.369,98.205 219.686,96.677 219.736,95.049 219.305,92.873 220.24,95.124 222.204,98.355 224.829,101.151 228.269,103.348 230.326,104.161 232.651,104.702 235.244,104.973 238.104,104.971 240.727,104.683 243.32,104.059 244.958,103.447 244.958,98.419 243.629,100.233 242.46,101.267 241.076,102.032 239.475,102.526 237.659,102.749 235.388,102.72 233.28,102.417 231.334,101.84 229.552,100.99 226.45,98.722 223.95,95.865 221.99,92.675 220.512,89.407 218.721,83.77 218.721,83.77 218.721,83.77 218.098,81.668 217.887,81.03 208.092,81.479 208.315,82.173ZM51.522,94.854 52.728,98.667 52.927,100.246 60.706,102.001 61.099,100.197 61.231,97.521 60.931,94.766 60.198,91.934 58.661,88.329 48.322,88.803 49.673,90.958ZM105.997,109.891 106.783,108.3 107.035,107.03 106.956,105.951 106.547,105.062 105.807,104.364 103.879,103.485 101.716,103.262 100.275,103.422 98.944,103.767 97.723,104.296 96.614,105.009 94.858,106.786 93.81,108.894 93.687,109.443 103.832,111.733 104.684,111.255Z"/><path data-facet="body-T2809" d="M235.28,444.378 232.928,443.919 230.853,443.768 223.239,443.78 230.964,446.291 236.326,448.25 236.326,444.684ZM208.27,453.81 189.869,446.522 190.08,445.512 190.929,445.259 192.504,445.172 194.387,445.306 196.854,445.712 199.903,446.391 203.535,447.342 211.978,449.838 221.613,452.977 231.93,456.577 236.326,458.204 236.326,454.398 233.136,453.24 226.578,450.979 220.279,448.942 214.238,447.129 208.456,445.54 203.12,444.248 198.42,443.327 194.353,442.776 190.921,442.596 188.71,442.732 187.061,443.134 185.973,443.801 185.446,444.734 168.065,437.753 149.163,430.1 146.153,428.872 136.846,428.886 153.435,435.364 183.948,447.484 213.284,459.381 226.207,464.744 236.326,469.065 236.326,464.64 226.014,460.707ZM103.116,454.727 99.969,454.031 98.889,453.996 110.042,457.123 108.11,456.401ZM179.05,475.748 173.991,472.784 169.013,470.22 163.404,467.558 157.163,464.799 150.292,461.943 136.037,456.387 122.023,451.334 116.484,449.478 111.135,447.819 105.976,446.355 101.006,445.087 96.394,444.064 92.309,443.334 88.75,442.898 85.718,442.755 83.062,442.969 81.182,443.603 80.235,444.684 80.376,446.239 80.745,447.01 81.443,447.751 83.549,449.15 85.013,449.884 86.296,450.407 87.398,450.721 88.319,450.825 88.79,450.733 88.822,450.459 87.563,449.368 85.324,447.556 84.338,446.261 84.605,445.483 86.125,445.221 88.077,445.355 90.613,445.761 93.731,446.44 97.433,447.391 106.014,449.887 115.788,453.025 126.26,456.626 136.939,460.506 147.289,464.471 156.774,468.325 164.859,471.873 167.726,473.293 180.63,476.911ZM213.71,465.94 201.512,460.969 200.733,461.222 201.004,461.537 201.716,461.978 215.814,467.787 224.436,471.222 233.3,474.6 236.326,475.679 236.326,474.536 229.882,472.195ZM232.827,479.062 230.423,477.982 228.076,477.078 225.784,476.35 221.833,475.388 219.04,475.07 217.844,475.167 217.161,475.452 216.993,475.925 217.339,476.587 219.279,478.28 222.689,480.335 226.165,482.131 229.753,483.828 233.454,485.427 236.326,486.557 236.326,485.085 235.892,484.898 232.161,483.124 235.514,483.96 236.326,484.113 236.326,480.941 235.286,480.316Z"/></g>
</svg>
