<?xml version="1.0" encoding="UTF-8"?>
<svg xmlns="http://www.w3.org/2000/svg" width="304.8mm" height="508mm" viewBox="0 0 304.8 508" role="img" aria-labelledby="title desc">
<title id="title">Laser marking sheet 306</title><desc id="desc">Millimetre-scale outlined marking art clipped to exact unfolded surface facets. Contains marking artwork only; no perimeter cutting path.</desc>
<g id="laser-marking" fill="#000" fill-rule="evenodd"><path data-facet="body-T0653" d="M17.403,80.216 10,80.293 22.127,82.807ZM272.041,79.743 267.939,77.605 260.169,77.686 264.739,80.142 274.016,85.33 285.888,92.217 291.893,95.94 291.893,91.059 285.471,87.26ZM66.412,84.043 82.911,92.176 70.713,87.342 64.378,84.981 57.875,82.73 51.03,80.496 49.005,79.887 32.031,80.064 32.617,80.351 46.645,87.431 48.083,88.185 64.281,91.542 63.615,91.191 57.777,88.313 49.745,84.541 46.185,82.744 44.62,81.682 44.022,81.122 43.831,80.72 44.049,80.475 44.676,80.387 46.691,80.636 50.017,81.41 54.822,82.843 61.273,85.068 69.289,88.112 79.362,92.213 85.362,94.806 89.795,96.829 107.92,100.585 107.92,100.585 112.272,101.487 111.625,101.259 105.408,98.749 98.155,95.414 90.098,91.44 81.472,87.014 81.463,87.016 78.7,85.6 66.857,79.701 57.412,79.799 57.787,79.968ZM244.105,86.127 252.262,90.303 239.51,85.151 233.498,82.895 227.963,80.957 221.462,78.814 219.116,78.113 201.419,78.298 208.307,81.755 223.902,89.412 230.034,92.57 235.299,95.494 239.925,98.399 244.145,101.496 245.708,102.922 246.116,103.794 245.724,104.243 244.888,104.4 243.408,104.284 241.536,103.909 236.614,102.383 230.61,100.073 224.013,97.23 210.754,91.005 200.504,85.773 200.319,85.818 193.703,82.433 184.941,78.47 174.178,78.582 179.636,80.922 185.893,83.768 195.006,88.095 191.823,87.845 186.501,87.052 179.919,85.651 172.954,83.58 166.251,81.048 161.142,78.718 156.699,78.764 158.503,79.632 162.063,81.186 165.859,82.683 174.155,85.509 178.162,86.626 182.706,87.684 191.863,89.368 195.687,89.854 198.473,90 204.191,93.392 207.411,95.542 210.358,97.75 213.159,100.282 214.87,102.556 215.126,103.497 214.725,104.175 213.67,104.591 211.958,104.743 209.349,104.642 206.507,104.288 203.433,103.679 200.125,102.817 193.169,100.571 185.997,97.788 178.929,94.707 172.285,91.568 161.682,86.178 160.624,86.432 160.661,86.734 161.074,87.155 173.695,93.602 180.68,96.967 187.817,100.088 195.036,102.817 202.265,105.006 205.826,105.842 209.277,106.429 212.616,106.769 215.843,106.86 218.366,106.672 220.346,106.166 221.783,105.342 222.676,104.2 222.811,102.736 221.97,100.945 220.154,98.827 217.362,96.382 214.402,94.169 214.38,94.154 219.193,96.485 226.194,99.634 233.028,102.407 239.424,104.619 242.391,105.461 245.114,106.056 247.594,106.404 249.831,106.505 252.421,106.101 254.15,104.95 254.409,104.038 253.886,102.823 252.582,101.307 250.497,99.488 247.049,96.99 242.177,93.967 238.142,91.73 233.2,89.261 219.531,82.771 216.357,81.159 214.407,79.912 213.817,79.352 213.655,78.949 213.921,78.704 214.613,78.616 216.723,78.863 220.03,79.638 224.778,81.071 231.21,83.296 239.388,86.392 249.944,90.65 256.174,93.315 263.117,96.472 279.143,104.259 281.579,105.298 283.292,105.671 286.891,105.796 289.811,105.927 291.275,106.087 291.893,106.248 291.893,106.025 265.871,92.911 239.231,79.33 236.525,77.932 228.352,78.017 236.082,82.059ZM126.689,86.219 112.211,80.546 108.677,79.265 104.589,79.307 109.307,80.792 114.824,82.723 120.782,84.96 134.024,90.349 141.291,94.425 150.357,99.993 154.327,102.648 157.345,104.881 158.829,106.214 159.266,107.018 168.783,106.919 169.728,106.666 169.24,105.944 168.42,105.413 167.047,104.564 158.166,99.372 149.673,94.823 135.395,87.423 136.603,87.531 136.705,87.247 135.852,86.447 125.409,81.002 121.764,79.128 113.739,79.212 118.232,81.562ZM92.627,84.201 97.9,85.656 103.056,86.897 108.225,87.814 113.54,88.297 118.638,91.318 122.83,94.348 125.191,96.363 127.052,98.254 128.415,100.023 129.279,101.669 129.543,103.058 129.106,104.057 127.968,104.665 127.738,104.692 139.415,107.112 140.062,106.548 140.408,105.651 140.055,103.484 138.513,100.979 136.207,98.415 133.565,96.07 130.847,94.045 128.05,92.231 125.172,90.626 122.213,89.232 117.114,87.276 115.24,86.766 113.815,86.569 110.95,86.451 106.92,85.832 102.317,84.788 97.733,83.393 94.268,82.182 91.335,80.952 88.933,79.704 88.594,79.474 80.654,79.557 86.321,82.016Z"/><path data-facet="body-T0952" d="M143.472,346.771 143.502,346.777 145.938,347.06 148.088,347.155 147.047,346.771ZM189.431,346.771 201.272,351.118 212.623,355.621 217.711,357.781 222.155,359.786 225.956,361.636 229.113,363.332 232.826,365.556 234.89,367.052 235.275,367.548 235.188,367.902 233.601,368.185 231.999,367.989 229.571,367.403 226.319,366.425 222.243,365.057 212.223,361.431 200.12,356.807 186.532,351.441 174.976,346.771 167.181,346.771 194.625,357.831 204.461,361.677 213.167,364.909 220.741,367.527 227.185,369.533 232.589,371.019 237.044,372.081 240.551,372.718 243.108,372.93 244.613,372.814 245.483,372.465 245.717,371.883 245.316,371.07 244.279,370.023 242.607,368.744 237.357,365.489 233.871,363.608 229.648,361.525 224.69,359.24 218.997,356.753 206.232,351.549 193.462,346.771Z"/><path data-facet="body-T1252" d="M260.51,10 269.019,11.353 269.02,10ZM265.298,15.44 262.382,15.036 260.038,14.901 257.953,15.225 257.601,15.939 257.828,16.789 258.636,17.773 260.024,18.892 264.192,21.426 269.016,23.805 269.017,20.231 267.421,19.215 266.852,18.649 266.803,18.245 268.264,17.921 269.017,17.976 269.018,16.169 268.785,16.115ZM45.386,17.112 45.331,16.667 45.999,16.519 47.568,16.65 49.777,17.045 56.114,18.622 64.284,20.995 73.561,23.907 85.607,27.91 91.285,29.256 91.285,29.256 117.103,35.372 111.046,33.344 114.422,33.627 120.434,34.476 128.281,35.945 137.162,38.089 146.238,40.691 154.962,43.535 161.328,45.848 171.123,48.168 171.021,48.119 167.822,46.737 164.127,45.288 159.935,43.771 155.246,42.187 150.221,40.597 145.02,39.06 134.09,36.148 129.053,34.988 123.546,33.883 112.889,32.103 108.651,31.578 105.769,31.402 96.819,27.951 91.543,25.767 86.48,23.529 81.242,20.968 77.329,18.676 76.155,17.732 75.883,17.058 76.514,16.654 78.048,16.519 80.712,16.647 83.855,17.031 87.475,17.672 91.574,18.568 100.618,20.887 110.401,23.745 120.374,26.9 129.987,30.108 145.7,35.608 146.492,35.366 146.159,35.062 145.34,34.638 126.605,28.059 116.435,24.621 106.355,21.426 96.58,18.622 87.323,16.357 83.001,15.484 79.031,14.861 75.415,14.487 72.151,14.362 69.854,14.524 68.403,15.009 67.798,15.818 68.039,16.95 69.343,18.413 71.927,20.213 75.79,22.35 80.933,24.823 86.015,27.068 86.051,27.083 79.032,24.702 69.058,21.48 59.617,18.636 51.158,16.357 47.414,15.484 44.152,14.861 41.372,14.487 39.073,14.362 36.922,14.739 36.35,15.872 36.663,16.316 49.362,19.324 46.642,17.988ZM246.995,22.855 241.439,20.509 238.845,19.215 237.202,18.137 236.913,17.409 238.385,17.166 240.168,17.277 242.428,17.611 245.165,18.167 248.381,18.946 255.758,20.981 264.072,23.529 269.015,25.142 269.015,24.223 262.046,21.965 252.719,19.148 244.219,16.842 240.424,15.946 237.125,15.306 234.323,14.921 232.016,14.793 229.816,14.938 228.654,15.373 228.531,16.098 229.446,17.112 231.115,18.315 233.251,19.606 235.854,20.985 238.925,22.451 242.816,24.11 235.052,21.588 225.618,18.73 217.033,16.411 213.197,15.515 209.847,14.874 206.985,14.49 204.61,14.362 202.441,14.739 201.813,15.872 202.437,16.789 204.163,18.029 206.993,19.593 210.926,21.48 216.767,24.015 224.287,26.98 237.229,31.618 245.793,34.557 257.392,38.413 262.654,40.246 265.235,41.325 266.373,41.891 266.955,42.295 266.981,42.538 266.45,42.619 264.224,42.349 260.194,41.54 254.063,40.057 245.538,37.765 234.668,34.638 220.74,30.432 212.296,27.776 202.419,24.554 178.369,16.411 174.924,15.333 172.786,14.901 168.859,14.685 165.711,14.524 164.115,14.348 162.208,13.931 175.557,18.632 169.644,17.018 164.553,15.781 160.407,14.955 153.936,14.106 151.356,13.974 149.213,14.038 147.829,14.305 147.087,14.78 146.985,15.464 147.525,16.357 149.996,18.528 153.97,21.049 158.753,23.637 163.651,26.01 168.309,28.062 172.839,29.906 177.244,31.54 181.522,32.966 188.454,34.975 190.797,35.504 192.392,35.716 195.326,35.865 199.896,36.525 205.446,37.617 211.323,39.06 215.917,40.307 220.008,41.567 223.596,42.841 226.68,44.129 228.995,45.308 230.039,46.151 229.814,46.656 228.317,46.825 225.003,46.528 219.767,45.639 212.349,44.021 202.491,41.54 195.172,39.552 187.118,37.253 168.81,31.726 157.665,27.574 143.289,21.911 136.781,19.215 131.623,16.95 128.856,15.602 127.637,14.793 118.375,14.793 117.693,15.036 118.882,15.764 120.209,16.303 122.392,17.166 136.218,22.451 149.032,27.088 170.332,34.638 169.037,34.516 169.216,34.8 170.839,35.608 186.449,41.163 211.537,50.006 241.681,60.522 269.002,69.905 269.003,66.905 268.572,66.764 248.439,59.983 227.119,52.676 205.665,45.207 192.958,40.677 180.074,35.932 199.876,41.756 210.281,44.654 220.338,47.31 229.466,49.508 237.081,51.031 243.653,52.002 247.999,52.325 250.272,52.029 250.577,51.658 250.328,51.139 248.535,49.791 245.263,48.119 239.784,45.868 232.318,43.212 223.896,40.556 215.551,38.305 208.939,36.795 202.652,35.501 196.668,34.53 190.968,33.991 182.991,30.917 175.897,27.843 171.599,25.804 167.913,23.893 164.839,22.11 162.375,20.455 160.753,19.064 160.203,18.069 160.726,17.473 162.321,17.274 164.943,17.49 168.693,18.137 173.712,19.296 180.138,21.049 188.714,23.624 199.119,27.034 210.94,31.092 223.764,35.608 223.77,35.606 227.876,37.051 248.674,44.236 258.622,47.539 265.592,49.683 268.201,50.367 269.008,50.535 269.008,47.692 265.289,46.555 253.967,42.902 241.487,38.736 217.286,30.432 234.023,35.393 242.568,37.819 251.171,40.138 260.094,42.443 269.009,44.615 269.011,39.528 257.606,35.555 237.072,28.221 228.385,24.999 221.635,22.343 215.529,19.754 212.622,18.325 211.455,17.49 211.488,17.085 212.186,16.95 213.842,17.065 216.019,17.409 221.932,18.784 229.39,20.873 237.859,23.475 246.948,26.428 256.267,29.569 265.586,32.843 269.013,34.102 269.013,34.048 269.013,34.048 269.013,33.816 269.013,31.089 255.167,26.01Z"/><path data-facet="body-T1552" d="M152.642,311.161 149.743,311.292 147.93,311.687 147.203,312.344 147.416,312.889 152.041,314.015 152.218,313.641 154.545,313.318 158.463,313.574 163.841,314.342 170.093,315.461 176.634,316.769 187.482,319.142 196.3,321.326 206.401,323.995 226.48,329.603 245.14,335.049 254.592,337.894 261.884,340.208 261.866,337.727 247.171,333.162 228.366,327.621 209.602,322.431 200.452,320.041 191.746,317.888 183.483,315.97 175.664,314.288 168.527,312.92 162.311,311.943 157.016,311.356ZM261.888,340.771 261.885,340.476 258.786,340.016Z"/><path data-facet="body-T1810" d="M13.092,481.476 10,481.476 14.284,481.98ZM146.954,481.954 143.77,481.476 140.689,481.476 144,481.976 148.469,482.597 151.965,483.031 152.02,482.515 150.208,482.354ZM54.993,482.873 56.4,483.036 57.93,483.134 59.581,483.167 62.622,483.08 64.17,483.029 65.872,483.051 60.778,482.099 58.118,481.476 48.81,481.476 53.708,482.644ZM146.033,483.704 141.687,482.72 137.149,481.598 136.689,481.476 128.22,481.476 134.121,483.08 137.771,483.969 140.638,484.546 141.927,484.731 143.316,484.862 144.806,484.941 146.396,484.968 148.74,484.895 151.227,484.822 151.772,484.834 151.782,484.74 149.785,484.448ZM110.674,484.299 110.804,484.572 110.537,484.808 109.884,485.113 117.799,485.171 119.624,485.16 120.752,485.069 121.287,484.928 121.334,484.764 120.804,484.517 119.61,484.125 113.778,482.383 110.732,481.476 102.387,481.476 109.784,483.893ZM30.382,483.327 33.614,483.864 36.959,484.343 40.416,484.764 43.909,485.107 47.363,485.352 50.776,485.499 54.15,485.548 57.299,485.494 60.182,485.331 62.675,485.044 64.655,484.619 65.157,484.401 65.126,484.154 64.767,483.995 64.083,483.864 63.18,483.791 62.162,483.806 61.659,484.25 60.566,484.568 58.882,484.759 56.608,484.822 53.913,484.742 50.68,484.503 46.104,483.976 41.007,483.21 35.726,482.266 31.901,481.476 21.702,481.476 27.262,482.731ZM79.936,484.314 85.687,486.144 91.763,487.945 97.88,489.64 103.755,491.154 106.03,491.685 108.287,492.145 110.526,492.534 112.747,492.853 116.779,493.278 118.501,493.384 120.026,493.419 121.983,493.336 123.286,493.085 123.829,492.668 123.505,492.083 122.732,491.575 121.467,490.98 119.64,490.297 117.179,489.527 109.131,487.262 100.119,484.997 95.166,483.882 89.799,482.804 84.018,481.762 82.257,481.476 71.908,481.476 74.711,482.524ZM92.829,484.169 99.153,485.606 105.221,487.102 110.777,488.587 115.565,489.992 118.295,490.951 119.32,491.43 119.926,491.822 120.022,492.127 119.796,492.203 119.388,492.229 118.613,492.174 117.428,492.011 113.591,491.27 109.782,490.413 105.427,489.295 95.9,486.623 86.791,483.878 80.021,481.685 86.401,482.844ZM120.732,487.581 120.821,487.959 121.219,488.2 121.853,488.427 123.825,488.845 126.264,489.139 128.694,489.237 130.475,489.172 131.822,488.976 132.555,488.678 132.491,488.308 132.078,488.053 131.431,487.814 129.438,487.378 128.193,487.2 126.916,487.073 125.607,486.997 124.267,486.972 122.619,487.044 121.386,487.262Z"/><path data-facet="body-T2342" d="M185.485,456.052 192.348,454.187 199.303,452.512 206.18,451.073 212.911,449.917 219.424,449.091 225.721,448.596 231.8,448.431 236.91,448.565 241.282,448.97 244.915,449.644 247.811,450.588 250.054,451.744 251.73,453.055 252.839,454.521 253.381,456.142 253.103,459.606 251.235,463.205 248.21,466.36 244.107,469.568 243.559,469.927 248.655,471.145 251.223,469.905 254.162,468.318 256.795,466.71 259.121,465.083 261.14,463.435 264.257,460.078 265.553,458.036 266.178,456.115 266.132,454.315 265.417,452.637 264.067,451.103 262.117,449.738 259.567,448.542 256.418,447.514 252.681,446.688 248.365,446.099 243.472,445.745 238.001,445.627 230.545,445.822 222.786,446.409 214.726,447.386 206.364,448.754 197.866,450.439 189.397,452.367 180.957,454.537 180.135,454.773ZM266.84,469.836 266.885,465.331 264.416,466.71 254.146,472.456 259.953,473.844ZM266.807,473.1 266.832,470.6 264.289,472.588 262.238,474.39 264.612,474.957Z"/><path data-facet="body-T2642" d="M179.611,144.885 181.115,145.249 183.412,145.006 184.639,144.71 179.642,144.71ZM28.912,146.961 25.446,148.51 30.649,149.79 32.987,148.781 41.826,144.71 33.651,144.71ZM49.275,146.597 46.099,150.17 42.98,152.824 44.842,153.282 46.157,152.61 47.745,151.504 52.439,147.325 54.841,144.71 50.386,144.71ZM228.021,150.264 221.189,154.955 216.895,158.043 215.764,159.071 215.311,159.755 215.798,160.523 217.713,160.779 221.657,160.51 225.656,160.348 229.756,156.789 239.668,148.97 245.274,144.71 235.967,144.71Z"/><path data-facet="body-T2942" d="M65.626,215.072 62.074,215.178 58.39,215.497 54.573,216.027 50.625,216.771 46.543,217.726 42.329,218.894 39.985,219.638 44.422,220.759 45.292,220.481 51.64,218.914 57.472,217.974 62.788,217.66 66.307,217.849 69.21,218.415 71.497,219.359 73.168,220.68 74.275,222.325 74.87,224.239 74.953,226.423 74.61,228.385 81.89,230.224 82.463,227.475 82.531,224.809 82.009,222.419 80.895,220.306 79.192,218.469 76.845,216.983 73.801,215.921 70.062,215.284ZM107.563,231.411 114.138,223.268 114.768,222.19 114.313,221.759 111.428,221.543 109.077,221.381 108.216,221.206 107.928,220.788 96.041,233.798 104.516,235.939 105.296,234.633ZM130.124,231.856 133.286,229.2 136.807,226.612 139.183,225.183 141.067,224.347 142.536,223.942 143.663,223.808 144.796,223.922 145.598,224.266 146.209,225.641 145.718,227.731 144.346,230.332 142.305,233.285 139.807,236.426 134.324,242.465 134.445,242.447 133.668,243.303 141.287,245.227 141.709,244.622 145.145,240.201 147.278,240.484 149.849,241.333 151.923,242.802 152.563,244.946 151.755,247.548 151.562,247.823 155.026,248.698 155.794,247.453 156.419,245.917 156.605,243.005 156.042,241.845 154.851,240.74 151.266,238.96 149.194,238.435 147.137,238.259 151.08,234.808 153.936,232.624 157.181,230.386 161.413,227.825 165.919,225.533 168.181,224.59 170.324,223.916 172.348,223.511 174.253,223.376 176.275,223.504 177.831,223.889 178.922,224.529 179.546,225.425 179.715,227.744 178.985,229.712 178.94,229.739 175.709,232.125 173.55,234.323 173.003,235.243 172.983,235.9 173.49,236.294 174.525,236.426 174.334,236.642 169.809,241.915 169.315,242.465 169.341,242.462 166.793,245.431 162.354,250.549 164.443,251.076 165.68,249.583 172.131,242.142 174.11,239.64 177.205,236.223 178.467,235.968 180.427,235.24 182.619,234.134 185.042,232.651 189.267,230.117 194.081,227.69 196.675,226.578 199.352,225.614 202.112,224.799 204.954,224.131 205.235,225.051 204.982,226.194 204.194,227.559 202.872,229.146 201.134,230.862 199.096,232.611 196.76,234.394 194.125,236.21 189.292,239.257 183.968,242.358 172.922,248.505 167.915,251.363 167.24,251.783 170.185,252.527 170.347,252.428 175.017,249.961 184.685,245.485 194.189,241.117 198.613,238.812 202.709,236.318 206.293,233.854 209.182,231.64 211.376,229.675 212.875,227.96 213.78,226.467 214.192,225.169 214.11,224.067 213.535,223.161 213.672,223.161 216.629,223.494 218.257,224.495 218.555,226.163 217.524,228.499 215.511,231.374 212.865,234.66 207.314,240.685 193.587,254.113 191.704,255.623 189.997,256.634 188.764,257.22 194.824,258.751 196.179,258.481 197.644,257.955 198.787,257.348 199.94,256.432 201.434,254.976 207.572,248.505 215.115,240.524 222.918,232.867 226.53,229.712 229.7,227.367 231.888,226.072 234.192,224.994 236.511,224.266 238.742,224.023 240.004,224.135 240.92,224.468 241.489,225.024 241.712,225.803 241.336,227.839 240.012,230.386 237.964,233.298 235.418,236.426 232.525,239.573 231.967,240.093 229.51,242.644 227.405,245.121 225.652,247.524 224.25,249.853 223.266,252.037 222.762,254.005 222.74,255.758 223.199,257.294 224.196,258.545 225.787,259.438 227.971,259.974 230.75,260.152 233.371,260.024 236.312,259.64 239.574,259 243.157,258.103 237.293,264.844 233.926,268.628 241.187,270.462 243.817,267.163 252.778,256.513 252.712,246.592 250.554,249.341 244.684,256.378 241.16,257.348 239.493,257.591 237.661,257.672 236.251,257.54 235.162,257.146 234.396,256.489 233.953,255.569 233.859,253.156 234.707,250.123 236.402,246.644 238.848,242.897 241.875,239.082 245.312,235.401 249.026,232.045 252.6,229.411 252.575,225.598 251.872,225.911 249.454,227.151 246.922,228.607 244.277,230.279 241.167,232.423 241.522,231.991 243.686,228.823 245.027,226.005 245.316,223.7 244.973,222.803 244.182,222.163 242.941,221.779 241.252,221.651 238.691,221.796 236.066,222.23 233.377,222.955 230.623,223.969 227.898,225.173 225.297,226.463 222.819,227.842 220.464,229.308 218.382,230.824 219.19,229.787 220.475,227.771 221.315,225.958 221.712,224.347 221.48,223.026 220.436,222.082 218.579,221.516 215.91,221.327 213.252,221.435 210.471,221.759 207.805,221.354 204.456,221.219 201.525,221.391 198.337,221.907 194.892,222.766 191.189,223.969 187.55,225.361 184.295,226.787 183.47,227.207 184.009,225.479 183.451,223.215 182.534,222.342 181.06,221.718 179.026,221.344 176.435,221.219 173.725,221.381 170.651,221.866 167.214,222.675 163.414,223.808 159.429,225.27 155.435,227.07 151.433,229.207 147.424,231.681 144.622,233.615 146.214,231.667 148.443,228.445 149.828,225.587 150.086,223.268 149.705,222.372 148.867,221.732 147.571,221.347 145.818,221.219 142.459,221.597 137.852,222.729 135.174,223.646 132.372,224.886 129.446,226.45 126.395,228.337 122.819,230.872 119.271,233.838 114.825,238.475 114.777,238.531 121.786,240.301 126.751,235.078ZM194.812,224.239 196.517,223.673 198.165,223.268 201.288,222.945 203.557,223.161 198.561,224.751 193.573,226.72 188.77,229.038 184.329,231.681 184.928,230.589 185.91,229.47 187.2,228.351 188.722,227.259 191.555,225.641Z"/></g>
</svg>
