<?xml version="1.0" encoding="UTF-8"?>
<svg xmlns="http://www.w3.org/2000/svg" width="304.8mm" height="508mm" viewBox="0 0 304.8 508" role="img" aria-labelledby="title desc">
<title id="title">Laser marking sheet 263</title><desc id="desc">Millimetre-scale outlined marking art clipped to exact unfolded surface facets. Contains marking artwork only; no perimeter cutting path.</desc>
<g id="laser-marking" fill="#000" fill-rule="evenodd"><path data-facet="body-T1937" d="M252.403,433.912 256.74,436.529 256.77,436.007 256.648,434.648 256.39,433.499 259.128,436.807 260.664,438.896 265.159,441.607 260.639,435.127 257.333,431.114 253.802,427.845 251.909,426.563 249.875,425.611 247.699,424.991 245.381,424.7 242.21,424.913 240.712,425.416 240.348,425.84 240.241,426.379 240.391,426.667 241.375,427.26 241.575,427.314 243.803,426.998 245.741,426.667 247.067,426.885 248.296,427.395 249.426,428.198 250.459,429.294 251.96,431.833Z"/><path data-facet="body-T2061" d="M99.083,419.976 102.493,417.545 108.867,413.122 113.43,410.061 116.222,408.019 116.841,407.297 116.943,406.774 116.024,406.048 113.899,405.559 109.952,405.237 105.889,404.815 103.552,407.289 97.479,412.597 92.311,416.799ZM133.426,436.087 136.79,435.343 140.123,434.869 143.157,434.724 145.892,434.909 148.043,435.432 149.613,436.342 150.519,437.997 150.266,440.192 148.947,442.762 148.587,443.2 154.021,445.749 154.021,433.92 153.469,433.82 149.916,433.498 145.867,433.426 141.342,433.649 136.364,434.213 134.328,434.572 132.624,435.06 131.935,435.388Z"/><path data-facet="body-T2849" d="M292.81,470.344 285.054,469.04 292.833,471.822 292.833,470.351ZM281.78,484.282 274.895,481.823 262.754,477.553 258.217,475.919 255.234,474.739 253.887,474.107 253.153,473.638 253.033,473.334 253.527,473.192 255.91,473.29 259.859,473.82 276.043,479.835 286.084,483.557 292.833,486.023 292.833,485.577 286.067,483.118 286.031,483.114 285.38,482.857 272.496,478.051 253.462,470.807 243.565,466.975 234.605,463.422 231.474,462.224 228.784,461.306 226.623,460.67 225.084,460.32 223.952,460.282 224.106,460.762 224.718,461.199 225.759,461.773 229.129,463.326 231.751,464.421 234.471,465.484 237.289,466.514 240.204,467.513 246.297,469.482 252.717,471.457 250.126,471.094 246.942,470.584 240.284,469.392 233.143,467.974 234.525,468.643 237.492,469.856 241.614,471.433 250.347,474.645 258.505,477.59 271.795,482.392 278.929,485.008 285.664,487.533 291.484,489.789 292.833,490.345 292.833,488.399 288.782,486.845ZM283.883,475.337 288.588,476.788 292.833,478.153 292.833,476.858 292.347,476.759ZM274.068,474.287 271.618,473.543 269.384,472.967 267.365,472.562 259.857,471.3 267.013,473.593 275.857,476.605 286.618,480.4 292.833,482.635 292.833,481.012 276.733,475.202ZM235.279,473.179 255.029,480.229 241.113,475.662 234.039,473.392 238.869,475.407 240.267,475.859 251.821,479.69 258.791,482.054 266.906,484.866 286.568,491.828 289.412,492.791 291.257,493.294 292.833,493.602 292.833,492.452 289.63,491.291 292.833,492.302 292.833,491.816 292.774,491.799 288.281,490.37 282.51,488.457 275.714,486.135 268.15,483.482 263.661,481.873 251.861,477.597 250.711,477.177 250.704,477.177 247.365,475.967 230.41,469.889 222.255,467.035 216.486,465.103 214.288,464.426 212.269,463.867 210.43,463.426 209.896,463.322 224.283,469.323 225.057,469.59Z"/><path data-facet="body-T3153" d="M71.362,14.783 85.626,18.553 94.774,21.175 103.771,23.938 107.824,25.298 112.04,26.823 116.421,28.514 120.965,30.37 129.154,33.961 132.449,35.541 135.213,36.978 136.565,37.8 136.565,36.296 134.656,35.204 130.525,33.049 126.169,30.979 121.588,28.993 116.78,27.091 107.033,23.582 97.473,20.495 84.865,16.763 80.019,15.457ZM136.565,43.2 136.565,41.19 133.976,40.815 129.176,39.715 123.669,38.23 117.953,36.549 108.542,33.576 100.977,30.924 92.365,27.733 75.35,21.112 59.614,14.744 57.021,13.665 49.491,13.078 57.077,16.328 72.918,22.794 88.837,28.935 96.646,31.799 104.117,34.415 111.249,36.781 118.042,38.898 124.298,40.678 129.817,42.031 134.601,42.957Z"/></g>
</svg>
